{"title":"Inside.Out.2015.WEBRiP.XViD.ReLeNTLesS","uid":12508217,"size":1215682936,"categoryP":"video","categoryS":"movies","magnet":"?xt=urn:btih:6f7c1f91064eb86d3483397612ac87f195997120&amp;dn=Inside.Out.2015.WEBRiP.XViD.ReLeNTLesS&amp;tr=udp%3A%2F%2Ftracker.leechers-paradise.org%3A6969&amp;tr=udp%3A%2F%2Fzer0day.ch%3A1337&amp;tr=udp%3A%2F%2Fopen.demonii.com%3A1337&amp;tr=udp%3A%2F%2Ftracker.coppersurfer.tk%3A6969&amp;tr=udp%3A%2F%2Fexodus.desync.com%3A6969","seeders":0,"leechers":0,"uploader":"TvTeam","files":4,"time":1443483456,"description":"------------------------------------------------------------------------\r\n\r  https://www.torrenting.com\r\n\r\nSign up is OPEN - for time being. Come and have fun.\r\n\r\n------------------------------------------------------------------------P0STER\r\n[img]http://i.imgur.com/DCpIyDx.png[/img]\r\n\r\niMDB: http://www.imdb.com/title/tt2096673/\r\n\r\nGeneral\r\nComplete name               : Inside.Out.2015.WEBRiP.XViD.ReLeNTLesS.avi\r\nFormat                      : AVI\r\nFormat/Info                 : Audio Video Interleave\r\nFile size                   : 1.12 GiB\r\nDuration                    : 1h 34mn\r\nOverall bit rate            : 1 701 Kbps\r\n\r\nVideo\r\nID                          : 0\r\nFormat                      : MPEG-4 Visual\r\nFormat profile              : Advanced   \r\nFormat settings, BVOP       : 1\r\nFormat settings, QPel       : No\r\nFormat settings, GMC        : No warppoints\r\nFormat settings, Matrix     : Default (H.263)\r\nMuxing mode                 : Packed bitstream\r\nCodec ID                    : XVID\r\nCodec ID/Hint               : XviD\r\nDuration                    : 1h 34mn\r\nBit rate                    : 1 500 Kbps\r\nWidth                       : 720 pixels\r\nHeight                      : 400 pixels\r\nDisplay aspect ratio        : 16:9\r\nFrame rate                  : 30.000 fps\r\nColor space                 : YUV\r\nChroma subsampling          : 4:2:0\r\nBit depth                   : 8 bits\r\nScan type                   : Progressive\r\nCompression mode            : Lossy\r\nBits/(Pixel*Frame)          : 0.174\r\nStream size                 : 1 015 MiB (88%)\r\nWriting library             : XviD 1.2.1 (UTC 2008-12-04)\r\n\r\nAudio\r\nID                          : 1\r\nFormat                      : AC-3\r\nFormat/Info                 : Audio Coding 3\r\nMode extension              : CM (complete main)\r\nFormat settings, Endianness : Big\r\nCodec ID                    : 2000\r\nDuration                    : 1h 34mn\r\nBit rate mode               : Constant\r\nBit rate                    : 192 Kbps\r\nChannel(s)                  : 2 channels\r\nChannel positions           : Front: L R\r\nSampling rate               : 48.0 KHz\r\nCompression mode            : Lossy\r\nStream size                 : 130 MiB (11%)\r\nAlignment                   : Aligned on interleaves\r\nInterleave, duration        : 64 ms (1.92 video frames)\r\nInterleave, preload duratio : 192 ms\r\nTitle                       : Inside.Out.2015.English\r\nSample Included             : Yes\r\nSource                      : FUN Thanks\r\n\r\nPL0T\r\nAfter young Riley is uprooted from her Midwest life and moved to San Francisco, her emotions - Joy, Fear, Anger, Disgust and Sadness - conflict on how best to navigate a new city, house, and school.\r\n\r\nCAST\r\nDirectors: Pete Docter, Ronaldo Del Carmen\r\nWriters: Pete Docter (story), Ronaldo Del Carmen (story) (as Ronnie del Carmen)\r\nStars: Amy Poehler, Bill Hader, Lewis Black\r\n\r\nN0TE\r\nResized, sharpened, degrained and muxed audio.\r\n\r\nSCREENS\r\n[img]http://i.imgur.com/KCIM3XM.png[/img]\r\n[img]http://i.imgur.com/qtJIycp.png[/img]\r\n[img]http://i.imgur.com/3EzPSkc.png[/img]\r\n[img]http://i.imgur.com/D6XD1Wq.png[/img]\r\n[img]http://i.imgur.com/NsUszpk.png[/img]\r\n[img]http://i.imgur.com/jFgLoxP.png[/img]\r\n[img]http://i.imgur.com/XFZgzy9.png[/img]\r\n[img]http://i.imgur.com/N8fbPIZ.png[/img]\r\n\r\nTRAiLER\r\n\r\n\r\nGREETZ\r\n\r\n\r\nHIVE-CM8, Blackjesus, M0RPH, M00SE, MiLLENiUM,\r\n\r\nMANiX, TiTAN, Anonymous, TuX, \r\n\r\nACAB, KingStoner, FooKas, 4PlayHD, \r\n\r\nSoZE, GodFather, Cld.... \r\n\r\nKeep up the good work guyz","torrent":{"xt":"urn:btih:6f7c1f91064eb86d3483397612ac87f195997120","amp;dn":"Inside.Out.2015.WEBRiP.XViD.ReLeNTLesS","amp;tr":["udp%3A%2F%2Ftracker.leechers-paradise.org%3A6969","udp%3A%2F%2Fzer0day.ch%3A1337","udp%3A%2F%2Fopen.demonii.com%3A1337","udp%3A%2F%2Ftracker.coppersurfer.tk%3A6969","udp%3A%2F%2Fexodus.desync.com%3A6969"],"infoHash":"6f7c1f91064eb86d3483397612ac87f195997120","infoHashBuffer":{"type":"Buffer","data":[111,124,31,145,6,78,184,109,52,131,57,118,18,172,135,241,149,153,113,32]},"announce":[],"urlList":[]}}